<svg width="801" height="519" viewBox="0 0 801 519" fill="none" xmlns="http://www.w3.org/2000/svg">
<mask id="mask0_209_314" style="mask-type:alpha" maskUnits="userSpaceOnUse" x="0" y="0" width="801" height="519">
<rect width="801" height="519" fill="#C4C4C4"/>
</mask>
<g mask="url(#mask0_209_314)">
<path opacity="0.1" d="M401 446.217C703.652 446.217 949 442.248 949 437.353C949 432.458 703.652 428.489 401 428.489C98.348 428.489 -147 432.458 -147 437.353C-147 442.248 98.348 446.217 401 446.217Z" fill="#FE8338"/>
<path opacity="0.1" d="M401 519C703.652 519 949 515.031 949 510.136C949 505.241 703.652 501.272 401 501.272C98.348 501.272 -147 505.241 -147 510.136C-147 515.031 98.348 519 401 519Z" fill="#FE8338"/>
<path opacity="0.1" d="M401 294.318C703.652 294.318 949 290.35 949 285.454C949 280.559 703.652 276.59 401 276.59C98.348 276.59 -147 280.559 -147 285.454C-147 290.35 98.348 294.318 401 294.318Z" fill="#FE8338"/>
<path opacity="0.1" d="M401 370.263C703.652 370.263 949 366.294 949 361.399C949 356.503 703.652 352.535 401 352.535C98.348 352.535 -147 356.503 -147 361.399C-147 366.294 98.348 370.263 401 370.263Z" fill="#FE8338"/>
<path opacity="0.1" d="M661.79 54.42C658.22 53.7455 654.53 54.1495 651.19 55.5805C649.185 56.4743 647.015 56.9362 644.82 56.9362C642.625 56.9362 640.455 56.4743 638.45 55.5805C636.078 54.5389 633.508 54.0254 630.918 54.0755C628.328 54.1255 625.78 54.7381 623.45 55.8706C622.123 56.5762 620.643 56.947 619.14 56.9511C613.06 56.9511 608.01 50.8283 606.96 42.7547C608.157 41.8624 609.174 40.7526 609.96 39.4832C613.52 33.7406 619.03 30.049 625.23 30.049C631.43 30.049 636.87 33.6906 640.43 39.3732C641.49 41.0901 642.977 42.503 644.745 43.4743C646.513 44.4456 648.503 44.9422 650.52 44.9157H650.68C655.57 44.8656 659.76 48.7474 661.79 54.42Z" fill="#6C63FF"/>
<path opacity="0.1" d="M680.3 29.0585L670.48 35.2813L676.48 24.4364C674.79 23.0908 672.7 22.3479 670.54 22.3255H670.38C669.71 22.3346 669.041 22.2844 668.38 22.1754L665 24.2864L666.43 21.6852C664.067 20.867 662.025 19.3184 660.6 17.2632L654.6 21.0449L658.36 14.2018C654.88 10.0199 650.18 7.45874 645.02 7.45874C638.82 7.45874 633.31 11.1404 629.74 16.883C628.688 18.6001 627.2 20.0081 625.428 20.9639C623.656 21.9198 621.662 22.3895 619.65 22.3255H619.32C612.48 22.3255 606.94 30.079 606.94 39.6433C606.94 49.2076 612.48 56.9711 619.32 56.9711C620.822 56.9611 622.3 56.5906 623.63 55.8906C625.959 54.7552 628.507 54.1402 631.097 54.0884C633.687 54.0366 636.258 54.5491 638.63 55.5905C640.633 56.4905 642.804 56.9557 645 56.9557C647.196 56.9557 649.367 56.4905 651.37 55.5905C653.723 54.5725 656.268 54.0715 658.832 54.1216C661.395 54.1716 663.918 54.7715 666.23 55.8806C667.545 56.5692 669.006 56.9328 670.49 56.9411C677.33 56.9411 682.87 49.1776 682.87 39.6133C682.911 35.9351 682.028 32.3056 680.3 29.0585Z" fill="#FE8338"/>
<path opacity="0.1" d="M244.26 49.0074C241.758 48.5345 239.172 48.8165 236.83 49.8178C235.428 50.4444 233.91 50.7683 232.375 50.7683C230.84 50.7683 229.322 50.4444 227.92 49.8178C226.261 49.0889 224.463 48.7301 222.652 48.7664C220.84 48.8027 219.058 49.2331 217.43 50.0279C216.503 50.5114 215.475 50.7685 214.43 50.7782C210.18 50.7782 206.64 46.4963 205.9 40.8437C206.748 40.2216 207.471 39.4442 208.03 38.5527C210.52 34.5509 214.38 31.9497 218.72 31.9497C223.06 31.9497 226.87 34.5009 229.36 38.4727C230.104 39.6749 231.145 40.6643 232.384 41.3445C233.623 42.0247 235.017 42.3726 236.43 42.3544H236.54C239.9 42.3344 242.83 45.0556 244.26 49.0074Z" fill="#6C63FF"/>
<path opacity="0.1" d="M257.21 31.2694L250.34 35.6314L254.51 28.038C253.331 27.0939 251.87 26.5725 250.36 26.5573H250.24C249.764 26.5658 249.289 26.529 248.82 26.4472L246.49 27.9279L247.49 26.1071C245.838 25.5323 244.411 24.4504 243.41 23.0157L239.24 25.6569L241.88 20.8747C240.771 19.4424 239.358 18.2748 237.743 17.4563C236.127 16.6379 234.35 16.1891 232.54 16.1426C228.2 16.1426 224.34 18.7237 221.85 22.7456C221.112 23.948 220.069 24.9339 218.828 25.6033C217.586 26.2727 216.19 26.6018 214.78 26.5573H214.55C209.76 26.5573 205.88 31.9797 205.88 38.6828C205.88 45.3858 209.76 50.8083 214.55 50.8083C215.597 50.8002 216.626 50.5393 217.55 50.0479C219.178 49.2575 220.959 48.8303 222.768 48.7958C224.577 48.7612 226.373 49.1202 228.03 49.8478C229.44 50.4913 230.97 50.8321 232.52 50.8483C234.046 50.8456 235.555 50.5253 236.95 49.9078C238.597 49.1948 240.378 48.8437 242.172 48.8782C243.966 48.9127 245.732 49.3321 247.35 50.1079C248.276 50.5931 249.305 50.8471 250.35 50.8483C255.13 50.8483 259.01 45.4158 259.01 38.7228C259.05 36.1259 258.431 33.5613 257.21 31.2694Z" fill="#FE8338"/>
<path opacity="0.1" d="M122.59 127.453C125.089 126.981 127.672 127.263 130.01 128.263C131.413 128.89 132.933 129.214 134.47 129.214C136.007 129.214 137.527 128.89 138.93 128.263C140.589 127.536 142.386 127.176 144.197 127.211C146.008 127.246 147.79 127.673 149.42 128.463C150.344 128.956 151.373 129.217 152.42 129.224C156.67 129.224 160.21 124.932 160.94 119.279C160.092 118.659 159.373 117.881 158.82 116.988C156.32 112.986 152.46 110.395 148.13 110.395C143.8 110.395 139.98 112.936 137.48 116.918C136.737 118.119 135.697 119.107 134.46 119.788C133.223 120.468 131.831 120.816 130.42 120.8H130.31C126.94 120.82 124 123.531 122.59 127.453Z" fill="#6C63FF"/>
<path opacity="0.1" d="M109.63 109.745L116.51 114.107L112.33 106.524C113.512 105.577 114.976 105.052 116.49 105.033H116.6C117.079 105.04 117.557 105.006 118.03 104.933L120.36 106.403L119.36 104.593C121.008 104.017 122.432 102.935 123.43 101.501L127.6 104.142L125 99.3503C126.109 97.9193 127.523 96.7532 129.138 95.9364C130.754 95.1197 132.53 94.6728 134.34 94.6282C138.67 94.6282 142.54 97.2093 145.03 101.231C145.767 102.432 146.808 103.417 148.048 104.086C149.288 104.756 150.682 105.086 152.09 105.043H152.33C157.11 105.043 160.99 110.475 160.99 117.168C160.99 123.861 157.11 129.294 152.33 129.294C151.284 129.289 150.255 129.032 149.33 128.543C147.701 127.749 145.92 127.318 144.108 127.282C142.297 127.246 140.499 127.605 138.84 128.333C137.435 128.982 135.907 129.324 134.36 129.334C132.831 129.333 131.319 129.012 129.92 128.393C128.275 127.681 126.496 127.33 124.703 127.364C122.911 127.399 121.146 127.818 119.53 128.594C118.604 129.079 117.575 129.333 116.53 129.334C111.74 129.334 107.86 123.911 107.86 117.208C107.813 114.611 108.422 112.044 109.63 109.745Z" fill="#FE8338"/>
<path d="M517.31 434.482C519.92 429.64 516.96 423.717 513.56 419.405C510.16 415.093 506 410.601 506.09 405.109C506.22 397.215 514.6 392.543 521.29 388.361C526.258 385.244 530.84 381.55 534.94 377.356C536.655 375.741 538.073 373.838 539.13 371.733C540.52 368.652 540.48 365.13 540.39 361.729C540.103 350.464 539.547 339.205 538.72 327.954" stroke="#3F3D56" stroke-width="4" stroke-miterlimit="10"/>
<path d="M551.45 327.393C551.353 325.33 550.74 323.324 549.665 321.56C548.59 319.796 547.089 318.33 545.3 317.299L542.54 322.751L542.63 316.148C540.127 315.411 537.454 315.488 534.998 316.37C532.542 317.251 530.429 318.89 528.965 321.05C527.5 323.211 526.76 325.781 526.851 328.39C526.941 330.999 527.858 333.511 529.469 335.565C531.08 337.619 533.301 339.107 535.812 339.816C538.324 340.524 540.995 340.416 543.441 339.507C545.887 338.597 547.981 336.934 549.42 334.757C550.86 332.58 551.571 330.001 551.45 327.393Z" fill="#FE8338"/>
<path d="M529.49 410.751C528.252 413.159 526.255 415.092 523.808 416.25C521.361 417.408 518.601 417.726 515.955 417.157C513.308 416.587 510.924 415.161 509.169 413.099C507.415 411.036 506.389 408.453 506.25 405.749C506.158 404.043 506.431 402.338 507.05 400.747C507.957 398.425 509.545 396.434 511.606 395.034C513.667 393.635 516.104 392.893 518.595 392.907C521.086 392.921 523.514 393.69 525.559 395.113C527.604 396.536 529.17 398.545 530.05 400.877L522.36 407.139L530.82 405.139C530.83 407.089 530.374 409.013 529.49 410.751Z" fill="#FE8338"/>
<path d="M523.41 386.84C520.389 386.983 517.421 386.007 515.073 384.101C512.725 382.194 511.16 379.489 510.678 376.502C510.196 373.515 510.83 370.455 512.459 367.905C514.088 365.356 516.598 363.496 519.51 362.679L519.44 367.752L522.23 362.229C525.492 362.077 528.681 363.227 531.096 365.427C533.51 367.627 534.952 370.696 535.105 373.959C535.257 377.223 534.108 380.414 531.909 382.829C529.71 385.245 526.642 386.688 523.38 386.84H523.41Z" fill="#FE8338"/>
<path d="M553.3 366.941C551.391 367.04 549.486 366.693 547.735 365.927C545.984 365.161 544.435 363.998 543.211 362.53C541.987 361.061 541.121 359.328 540.683 357.467C540.245 355.606 540.245 353.668 540.685 351.807C541.125 349.947 541.992 348.214 543.217 346.747C544.443 345.279 545.992 344.117 547.744 343.353C549.496 342.589 551.402 342.243 553.31 342.343C555.219 342.444 557.078 342.987 558.74 343.931L556.57 349.933L561 345.551C562.792 347.195 564.057 349.332 564.636 351.694C565.216 354.056 565.083 356.537 564.255 358.823C563.427 361.11 561.942 363.1 559.985 364.543C558.028 365.986 555.688 366.817 553.26 366.931L553.3 366.941Z" fill="#FE8338"/>
<path opacity="0.1" d="M549.79 330.675C546.95 330.985 544.19 331.865 541.33 332.045C538.47 332.226 535.33 331.535 533.55 329.324C532.713 328.036 531.952 326.7 531.27 325.322C530.493 324.108 529.428 323.105 528.17 322.401C527.374 323.962 526.919 325.675 526.838 327.425C526.756 329.176 527.048 330.924 527.696 332.552C528.343 334.18 529.33 335.652 530.591 336.868C531.853 338.084 533.359 339.017 535.009 339.604C536.659 340.191 538.416 340.419 540.162 340.273C541.907 340.127 543.601 339.61 545.131 338.756C546.661 337.902 547.991 336.732 549.032 335.323C550.074 333.913 550.802 332.298 551.17 330.585C550.72 330.595 550.25 330.625 549.79 330.675Z" fill="black"/>
<path opacity="0.1" d="M553.3 366.941C551.177 367.042 549.065 366.591 547.168 365.633C545.272 364.674 543.655 363.241 542.476 361.472C541.297 359.704 540.596 357.66 540.441 355.539C540.285 353.419 540.681 351.295 541.59 349.373C542.566 350.033 543.405 350.875 544.06 351.854C544.795 353.257 545.61 354.616 546.5 355.926C548.42 358.177 551.7 358.928 554.67 358.777C557.64 358.627 560.51 357.777 563.47 357.527C563.88 357.527 564.29 357.467 564.71 357.457C564.098 360.064 562.652 362.4 560.593 364.112C558.534 365.823 555.974 366.816 553.3 366.941Z" fill="black"/>
<path opacity="0.1" d="M523.41 386.84C521.309 386.939 519.219 386.497 517.337 385.558C515.455 384.618 513.846 383.212 512.661 381.474C511.477 379.735 510.758 377.722 510.572 375.626C510.386 373.531 510.74 371.422 511.6 369.502C512.615 370.171 513.499 371.018 514.21 372.004C515.016 373.44 515.908 374.826 516.88 376.155C518.95 378.467 522.45 379.287 525.59 379.157C528.73 379.027 531.59 378.346 534.59 378.156C533.843 380.577 532.37 382.709 530.37 384.263C528.369 385.817 525.939 386.717 523.41 386.84Z" fill="black"/>
<path opacity="0.1" d="M529.49 410.751C528.252 413.159 526.255 415.092 523.808 416.25C521.361 417.408 518.601 417.726 515.955 417.157C513.308 416.587 510.924 415.161 509.169 413.099C507.415 411.036 506.389 408.453 506.25 405.749C506.158 404.043 506.431 402.338 507.05 400.746C508.064 401.412 508.974 402.225 509.75 403.158C510.92 404.578 511.69 406.159 513.05 407.53C515.56 410.001 519.63 411.021 523.24 411.111C525.329 411.118 527.416 410.997 529.49 410.751Z" fill="black"/>
<path d="M313.52 280.042C310.91 275.21 313.87 269.287 317.28 264.975C320.69 260.663 324.83 256.171 324.74 250.679C324.62 242.775 316.24 238.113 309.54 233.931C304.574 230.816 299.995 227.122 295.9 222.926C294.177 221.32 292.755 219.42 291.7 217.314C290.32 214.222 290.36 210.711 290.44 207.309C290.74 196.044 291.297 184.786 292.11 173.534" stroke="#3F3D56" stroke-width="4" stroke-miterlimit="10"/>
<path d="M279.39 172.963C279.485 170.901 280.097 168.895 281.17 167.131C282.243 165.366 283.742 163.901 285.53 162.869L288.29 168.321L288.21 161.718C289.524 161.336 290.892 161.171 292.26 161.228C294.692 161.342 297.035 162.174 298.994 163.619C300.954 165.065 302.44 167.06 303.266 169.351C304.093 171.642 304.221 174.126 303.636 176.49C303.051 178.854 301.778 180.992 299.979 182.633C298.18 184.273 295.935 185.343 293.528 185.707C291.121 186.072 288.66 185.714 286.456 184.679C284.252 183.644 282.405 181.978 281.147 179.893C279.889 177.808 279.278 175.396 279.39 172.963Z" fill="#FE8338"/>
<path d="M301.34 256.321C302.631 258.835 304.746 260.828 307.331 261.966C309.916 263.104 312.813 263.319 315.538 262.573C318.262 261.828 320.647 260.168 322.293 257.872C323.939 255.576 324.746 252.783 324.578 249.962C324.41 247.142 323.278 244.465 321.371 242.38C319.465 240.295 316.899 238.93 314.106 238.513C311.312 238.097 308.461 238.653 306.029 240.091C303.597 241.528 301.733 243.758 300.75 246.407L308.44 252.67L299.98 250.669C299.973 252.635 300.44 254.574 301.34 256.321Z" fill="#FE8338"/>
<path d="M307.42 232.41C310.442 232.556 313.412 231.583 315.762 229.677C318.113 227.771 319.679 225.066 320.163 222.077C320.647 219.089 320.013 216.028 318.384 213.477C316.755 210.927 314.244 209.066 311.33 208.25L311.39 213.322L308.6 207.799C305.339 207.639 302.148 208.781 299.729 210.974C297.31 213.167 295.861 216.232 295.7 219.495C295.63 220.915 295.809 222.338 296.23 223.697C296.968 226.127 298.44 228.269 300.444 229.829C302.447 231.389 304.884 232.291 307.42 232.41Z" fill="#FE8338"/>
<path d="M277.54 212.491C279.448 212.589 281.353 212.24 283.104 211.473C284.854 210.707 286.402 209.543 287.625 208.074C288.848 206.605 289.712 204.871 290.149 203.011C290.587 201.15 290.585 199.212 290.144 197.352C289.704 195.492 288.836 193.76 287.611 192.293C286.385 190.827 284.836 189.665 283.084 188.902C281.332 188.138 279.427 187.793 277.519 187.893C275.61 187.994 273.752 188.537 272.09 189.481L274.27 195.484L269.79 191.192C268.595 192.275 267.626 193.584 266.94 195.043C266.253 196.503 265.863 198.084 265.79 199.696C265.731 200.835 265.835 201.977 266.1 203.087C266.728 205.685 268.183 208.008 270.247 209.704C272.311 211.401 274.871 212.379 277.54 212.491Z" fill="#FE8338"/>
<path opacity="0.1" d="M281.05 176.245C283.89 176.555 286.65 177.435 289.5 177.616C292.35 177.796 295.5 177.105 297.29 174.894C298.124 173.606 298.882 172.27 299.56 170.893C300.341 169.678 301.409 168.675 302.67 167.971C303.468 169.532 303.923 171.246 304.006 172.998C304.089 174.749 303.796 176.498 303.149 178.128C302.501 179.757 301.513 181.23 300.251 182.446C298.989 183.663 297.482 184.596 295.83 185.183C294.179 185.77 292.421 185.997 290.674 185.85C288.928 185.702 287.233 185.183 285.703 184.328C284.173 183.472 282.843 182.299 281.803 180.888C280.763 179.477 280.035 177.86 279.67 176.145C280.12 176.155 280.58 176.195 281.05 176.245Z" fill="black"/>
<path opacity="0.1" d="M277.54 212.491C279.662 212.589 281.772 212.136 283.667 211.177C285.563 210.218 287.178 208.785 288.356 207.017C289.534 205.249 290.236 203.207 290.392 201.088C290.549 198.969 290.156 196.845 289.25 194.923C288.271 195.583 287.429 196.425 286.77 197.405C286.035 198.807 285.22 200.167 284.33 201.476C282.42 203.727 279.14 204.478 276.17 204.328C273.2 204.178 270.33 203.327 267.37 203.077C266.96 203.077 266.54 203.017 266.13 203.007C266.741 205.615 268.186 207.952 270.245 209.664C272.304 211.376 274.866 212.368 277.54 212.491Z" fill="black"/>
<path opacity="0.1" d="M307.42 232.41C309.522 232.512 311.614 232.072 313.497 231.133C315.38 230.195 316.991 228.788 318.176 227.049C319.361 225.309 320.08 223.295 320.265 221.198C320.449 219.101 320.093 216.992 319.23 215.073C318.217 215.739 317.335 216.587 316.63 217.574C315.824 219.01 314.932 220.396 313.96 221.726C311.88 224.037 308.39 224.857 305.24 224.727C302.09 224.597 299.24 223.917 296.24 223.726C296.983 226.15 298.455 228.284 300.456 229.838C302.457 231.393 304.889 232.291 307.42 232.41Z" fill="black"/>
<path opacity="0.1" d="M301.34 256.321C302.785 259.108 305.239 261.238 308.201 262.275C311.163 263.312 314.409 263.178 317.276 261.9C320.143 260.623 322.413 258.298 323.624 255.402C324.835 252.505 324.894 249.255 323.79 246.317C322.772 246.977 321.861 247.79 321.09 248.728C319.92 250.148 319.09 251.729 317.79 253.1C315.27 255.571 311.21 256.591 307.59 256.681C305.501 256.682 303.415 256.562 301.34 256.321Z" fill="black"/>
<path d="M632.73 282.293C687.936 282.293 732.69 237.519 732.69 182.288C732.69 127.056 687.936 82.2825 632.73 82.2825C577.524 82.2825 532.77 127.056 532.77 182.288C532.77 237.519 577.524 282.293 632.73 282.293Z" fill="#3F3D56"/>
<path d="M675.64 208.079C672.16 204.598 663.79 199.346 659.64 197.385C654.85 195.084 653.09 195.124 649.7 197.575C646.88 199.576 645.05 201.507 641.81 200.796C638.57 200.086 632.15 195.244 625.94 189.051C619.73 182.858 614.91 176.475 614.22 173.184C613.53 169.892 615.43 168.101 617.45 165.28C619.89 161.889 619.96 160.128 617.64 155.336C615.64 151.184 610.45 142.83 606.94 139.328C603.43 135.827 602.67 136.597 600.75 137.328C598.774 138.156 596.876 139.161 595.08 140.329C591.6 142.66 589.65 144.601 588.28 147.522C586.91 150.443 585.36 155.866 593.33 170.062C599.209 180.923 606.656 190.857 615.43 199.546C624.144 208.344 634.108 215.807 645 221.696C659.18 229.699 664.61 228.109 667.53 226.748C670.45 225.387 672.39 223.456 674.71 219.945C675.88 218.149 676.884 216.25 677.71 214.272C678.37 212.351 679.15 211.571 675.64 208.079Z" fill="#FE8338"/>
<path opacity="0.1" d="M632.73 82.2925C612.948 82.2826 593.607 88.143 577.154 99.1323C560.702 110.122 547.877 125.746 540.302 144.029C532.727 162.312 530.742 182.432 534.599 201.843C538.456 221.255 547.981 239.086 561.969 253.08C575.958 267.075 593.78 276.604 613.183 280.463C632.586 284.322 652.697 282.336 670.971 274.758C689.246 267.18 704.863 254.349 715.848 237.889C726.832 221.429 732.69 202.079 732.68 182.288C732.667 155.771 722.132 130.345 703.391 111.595C684.649 92.8452 659.234 82.3057 632.73 82.2925ZM632.73 268.997C615.588 268.997 598.832 263.912 584.579 254.384C570.326 244.856 559.217 231.314 552.657 215.47C546.098 199.626 544.381 182.192 547.725 165.372C551.07 148.552 559.324 133.102 571.445 120.975C583.566 108.849 599.009 100.59 615.822 97.2446C632.634 93.8989 650.06 95.6161 665.897 102.179C681.734 108.742 695.27 119.855 704.793 134.115C714.317 148.374 719.4 165.138 719.4 182.288C719.4 193.675 717.158 204.95 712.803 215.47C708.447 225.99 702.063 235.549 694.015 243.6C685.967 251.652 676.412 258.039 665.897 262.397C655.382 266.754 644.112 268.997 632.73 268.997Z" fill="black"/>
<path d="M403.08 434.192C458.286 434.192 503.04 389.418 503.04 334.186C503.04 278.955 458.286 234.181 403.08 234.181C347.874 234.181 303.12 278.955 303.12 334.186C303.12 389.418 347.874 434.192 403.08 434.192Z" fill="#3F3D56"/>
<path d="M459.93 303.973L430 334.437C429.947 334.487 429.906 334.548 429.877 334.615C429.848 334.682 429.834 334.754 429.834 334.827C429.834 334.9 429.848 334.972 429.877 335.039C429.906 335.106 429.947 335.166 430 335.217L451 357.557C451.502 358.063 451.844 358.707 451.982 359.407C452.12 360.107 452.049 360.832 451.776 361.492C451.504 362.151 451.043 362.715 450.451 363.113C449.859 363.511 449.163 363.726 448.45 363.73C447.49 363.728 446.57 363.347 445.89 362.669L425 340.409C424.893 340.304 424.75 340.245 424.6 340.245C424.45 340.245 424.307 340.304 424.2 340.409L419.11 345.552C417.026 347.684 414.537 349.378 411.789 350.534C409.042 351.69 406.091 352.285 403.11 352.285C400.073 352.27 397.069 351.651 394.274 350.462C391.478 349.274 388.948 347.54 386.83 345.361L381.94 340.359C381.833 340.254 381.69 340.195 381.54 340.195C381.39 340.195 381.247 340.254 381.14 340.359L360.3 362.569C359.965 362.905 359.566 363.172 359.128 363.354C358.69 363.536 358.22 363.629 357.745 363.629C357.27 363.629 356.8 363.536 356.362 363.354C355.924 363.172 355.525 362.905 355.19 362.569C354.853 362.234 354.585 361.836 354.403 361.398C354.22 360.959 354.126 360.488 354.126 360.013C354.126 359.538 354.22 359.067 354.403 358.629C354.585 358.19 354.853 357.792 355.19 357.457L376.11 335.167C376.203 335.058 376.254 334.92 376.254 334.777C376.254 334.634 376.203 334.495 376.11 334.387L346.18 303.923C346.103 303.845 346.005 303.793 345.898 303.771C345.791 303.75 345.68 303.761 345.579 303.802C345.478 303.844 345.392 303.915 345.332 304.006C345.272 304.097 345.24 304.204 345.24 304.313V365.271C345.248 367.627 346.187 369.885 347.853 371.551C349.518 373.217 351.775 374.157 354.13 374.164H452C454.355 374.157 456.612 373.217 458.278 371.551C459.943 369.885 460.882 367.627 460.89 365.271V304.363C460.895 304.25 460.865 304.137 460.803 304.042C460.742 303.946 460.653 303.872 460.548 303.829C460.442 303.786 460.327 303.777 460.216 303.803C460.105 303.829 460.006 303.888 459.93 303.973Z" fill="#FE8338"/>
<path d="M403.08 345.051C405.109 345.071 407.121 344.683 408.997 343.91C410.873 343.136 412.574 341.993 414 340.549L457.59 296.159C456.043 294.877 454.099 294.17 452.09 294.158H354.15C352.14 294.165 350.195 294.872 348.65 296.159L392.25 340.549C393.663 341.985 395.35 343.124 397.21 343.897C399.07 344.67 401.066 345.063 403.08 345.051Z" fill="#FE8338"/>
<path opacity="0.1" d="M401.82 234.191C382.038 234.181 362.697 240.042 346.244 251.031C329.792 262.02 316.967 277.645 309.392 295.928C301.817 314.211 299.832 334.33 303.689 353.742C307.546 373.154 317.071 390.985 331.059 404.979C345.048 418.974 362.871 428.503 382.273 432.362C401.676 436.22 421.787 434.235 440.061 426.657C458.336 419.078 473.953 406.247 484.938 389.787C495.922 373.327 501.78 353.978 501.77 334.186C501.757 307.67 491.222 282.244 472.481 263.494C453.739 244.744 428.324 234.204 401.82 234.191ZM401.82 420.896C384.678 420.896 367.922 415.81 353.669 406.282C339.416 396.755 328.307 383.213 321.747 367.369C315.188 351.525 313.471 334.09 316.815 317.27C320.16 300.45 328.414 285 340.535 272.874C352.656 260.747 368.099 252.489 384.912 249.143C401.724 245.798 419.15 247.515 434.987 254.078C450.824 260.64 464.36 271.754 473.883 286.013C483.407 300.273 488.49 317.037 488.49 334.186C488.49 357.183 479.359 379.238 463.105 395.499C446.851 411.76 424.806 420.896 401.82 420.896Z" fill="black"/>
<path d="M165.85 359.508C221.056 359.508 265.81 314.734 265.81 259.503C265.81 204.271 221.056 159.497 165.85 159.497C110.644 159.497 65.89 204.271 65.89 259.503C65.89 314.734 110.644 359.508 165.85 359.508Z" fill="#3F3D56"/>
<path d="M165.85 211.651L126 303.633L129.72 307.354L165.86 291.407L202 307.354L205.72 303.633L165.85 211.651Z" fill="#FE8338"/>
<path opacity="0.1" d="M165.85 159.467C146.07 159.458 126.731 165.317 110.279 176.304C93.8278 187.291 81.0028 202.912 73.4264 221.192C65.8499 239.472 63.8625 259.59 67.7154 279C71.5682 298.41 81.0884 316.241 95.0716 330.238C109.055 344.234 126.873 353.768 146.273 357.632C165.672 361.496 185.781 359.518 204.057 351.947C222.332 344.376 237.953 331.553 248.943 315.1C259.934 298.647 265.8 279.302 265.8 259.513C265.8 232.988 255.271 207.548 236.528 188.788C217.785 170.027 192.363 159.481 165.85 159.467ZM165.85 346.172C148.706 346.172 131.947 341.085 117.694 331.555C103.44 322.025 92.3309 308.48 85.7725 292.633C79.2142 276.786 77.5008 259.349 80.849 242.528C84.1972 225.707 92.4567 210.257 104.583 198.132C116.709 186.008 132.157 177.753 148.972 174.413C165.788 171.073 183.216 172.798 199.052 179.368C214.888 185.939 228.42 197.06 237.938 211.326C247.455 225.592 252.53 242.361 252.52 259.513C252.517 282.508 243.385 304.56 227.131 320.819C210.878 337.078 188.835 346.212 165.85 346.212V346.172Z" fill="black"/>
<path d="M641.93 385.45C641.023 383.235 640.093 381.028 639.14 378.827C638.355 376.679 637.201 374.685 635.73 372.934C635.171 372.304 634.491 371.793 633.73 371.433C632.893 371.124 632.012 370.949 631.12 370.913C629.76 370.742 628.387 370.705 627.02 370.803C626.49 370.643 625.89 370.433 625.3 370.193C628.259 369.415 630.89 367.707 632.805 365.32C634.721 362.934 635.82 359.995 635.94 356.937C635.94 356.737 635.94 356.527 635.94 356.327C635.948 354.454 635.587 352.599 634.878 350.866C634.169 349.134 633.126 347.557 631.809 346.228C630.491 344.899 628.925 343.842 627.199 343.118C625.473 342.394 623.621 342.018 621.75 342.01C619.116 342.005 616.533 342.744 614.3 344.141C611.351 343.472 608.261 343.822 605.537 345.136C602.813 346.45 600.614 348.649 599.3 351.374C597.644 352.96 596.335 354.872 595.457 356.991C594.579 359.109 594.151 361.387 594.2 363.68C594.2 363.89 594.2 364.11 594.2 364.31C594.46 372.084 599.48 378.316 605.82 378.947C605.142 379.251 604.52 379.667 603.98 380.177C602.04 382.048 601.72 385.019 601.51 387.721L601.36 389.722L598 390.922C597.893 390.96 597.799 391.027 597.727 391.115C597.656 391.203 597.61 391.309 597.594 391.422C597.579 391.534 597.594 391.649 597.639 391.753C597.685 391.857 597.757 391.947 597.85 392.013L601.06 394.304C601.06 394.494 601.06 394.684 601.06 394.874C601.06 395.064 601.06 395.304 601.12 395.524C600.572 396.007 600.147 396.614 599.88 397.295C599.567 398.345 599.469 399.447 599.59 400.536L599.71 403.328C599.694 405.429 599.981 407.521 600.56 409.541C600.98 410.781 602.8 413.772 604.11 413.792C602.9 419.295 602.58 430.9 602.58 430.9C602.43 431.05 602.85 431.19 603.58 431.31C604.3 436.833 606.65 452.32 610.82 459.133C611.476 461.354 612.001 463.613 612.39 465.896C612.39 465.896 613.58 480.613 615.15 484.985C616.49 488.706 617.55 497.89 617.84 500.552C617.568 500.622 617.321 500.765 617.125 500.966C616.929 501.167 616.793 501.419 616.73 501.692C615.94 504.073 610.82 507.695 610.82 507.695C609.251 508.479 607.769 509.428 606.4 510.526C604.79 511.977 604.85 513.287 612 512.467C625.8 510.876 628.16 506.464 628.16 506.464C628.16 506.464 627.94 505.724 627.61 504.764C627.189 503.269 626.58 501.834 625.8 500.492C625.6 500.302 625.4 500.622 625.16 501.122C624.119 494.739 623.803 488.258 624.22 481.803C624.22 481.803 624.61 475.04 622.64 470.268C622.202 467.769 622.202 465.213 622.64 462.715C623.43 459.533 619.49 444.016 619.49 444.016L617.23 432.591C617.538 432.981 617.753 433.436 617.86 433.922L617.92 434.152L617.98 434.482C618.003 434.598 618.058 434.706 618.14 434.792C619.68 441.195 623.9 458.933 623.9 461.534C623.9 464.715 627.84 472.669 627.84 472.669C627.84 472.669 629.41 485.795 632.17 490.957C634.27 494.889 634.32 500.652 634.22 503.193C634.22 503.193 633.75 506.464 632.96 507.255C632.332 508.036 631.829 508.91 631.47 509.846L631.38 510.036C631.38 510.036 630.2 512.427 630.99 512.827C633.995 514.006 637.247 514.416 640.45 514.018C640.45 514.018 642.03 512.017 642.03 511.237C641.997 510.76 641.937 510.286 641.85 509.816C641.56 507.935 641.02 504.974 641.01 504.944C641.34 503.663 640.01 500.101 640.01 500.101L639.61 488.966C640.342 481.427 639.4 473.819 636.85 466.686C636.85 466.686 634.85 459.533 635.28 457.542C635.71 455.551 634.49 434.472 634.49 434.472L634.37 434.172C634.263 432.681 634.304 431.183 634.49 429.7C634.88 424.927 633.31 414.983 632.91 414.593C632.584 413.524 632.396 412.418 632.35 411.301C632.44 410.471 632.71 408.04 633.08 405.019C636.968 404.886 640.847 404.552 644.7 404.018C645.072 404.018 645.43 403.875 645.7 403.618C645.858 403.378 645.938 403.095 645.93 402.807C646.39 396.815 644.2 390.992 641.93 385.45ZM634 398.065C634.41 395.214 634.85 392.453 635.29 390.402L635.35 390.582C636.107 392.644 636.742 394.748 637.25 396.885C636.2 397.365 635.113 397.76 634 398.065Z" fill="url(#paint0_linear_209_314)"/>
<path d="M603.37 430.27C603.37 430.27 605.73 451.509 610.84 459.763C611.497 461.957 612.021 464.189 612.41 466.446C612.41 466.446 613.59 480.993 615.16 485.315C616.73 489.637 617.91 501.442 617.91 501.442C617.91 501.442 623.41 507.725 625.38 502.623C624.143 495.881 623.746 489.012 624.2 482.173C624.2 482.173 624.59 475.49 622.63 470.768C622.192 468.3 622.192 465.773 622.63 463.305C623.41 460.153 619.48 444.826 619.48 444.826L616.34 429.49L603.37 430.27Z" fill="#BE6F72"/>
<path d="M628.13 506.554C628.13 506.554 625.77 510.876 612.02 512.447C604.88 513.257 604.83 511.967 606.44 510.526C607.805 509.441 609.279 508.502 610.84 507.725C610.84 507.725 615.95 504.193 616.73 501.832C617.51 499.471 620.27 501.442 620.27 501.442C624.2 507.335 624.99 499.861 625.77 500.652C626.553 501.972 627.161 503.387 627.58 504.864C627.91 505.814 628.13 506.554 628.13 506.554Z" fill="#FF6F61"/>
<path opacity="0.1" d="M628.13 506.554C628.13 506.554 625.77 510.876 612.02 512.447C604.88 513.257 604.83 511.967 606.44 510.526C607.56 511.236 609.82 511.527 614.37 509.696C620.92 507.015 625.67 505.464 627.58 504.864C627.91 505.814 628.13 506.554 628.13 506.554Z" fill="black"/>
<path opacity="0.1" d="M624.2 482.173C624.2 482.173 624.59 475.49 622.63 470.768C622.192 468.3 622.192 465.773 622.63 463.305C623.41 460.153 619.48 444.826 619.48 444.826L616.34 429.49L613.62 429.65L616.73 444.826C616.73 444.826 620.66 460.153 619.88 463.305C619.442 465.773 619.442 468.3 619.88 470.768C621.88 475.49 621.45 482.173 621.45 482.173C620.996 489.012 621.393 495.881 622.63 502.623C622.417 503.263 622.021 503.827 621.49 504.243C622.95 504.904 624.49 504.874 625.38 502.623C624.143 495.881 623.746 489.012 624.2 482.173Z" fill="black"/>
<path d="M621.64 343.971C619.018 343.965 616.447 344.697 614.22 346.082C611.28 345.403 608.196 345.74 605.472 347.039C602.748 348.338 600.544 350.522 599.22 353.235C597.571 354.796 596.266 356.684 595.389 358.779C594.513 360.874 594.084 363.13 594.13 365.401C594.13 373.764 599.76 380.537 606.7 380.537C611.7 380.537 616.08 376.976 618.09 371.823C619.245 372.13 620.435 372.284 621.63 372.284C625.383 372.284 628.982 370.792 631.636 368.137C634.289 365.483 635.78 361.882 635.78 358.127C635.78 354.373 634.289 350.772 631.636 348.117C628.982 345.462 625.383 343.971 621.63 343.971H621.64Z" fill="#3F3D56"/>
<path d="M633.24 432.241L634.42 435.382C634.42 435.382 635.6 456.222 635.2 458.192C634.8 460.163 636.78 467.197 636.78 467.197C639.321 474.237 640.261 481.757 639.53 489.206L639.92 500.211C639.92 500.211 641.49 504.533 640.71 505.324C639.93 506.114 634 504.623 634 504.623C634 504.623 634.79 496.37 632 491.257C629.21 486.145 627.68 473.169 627.68 473.169C627.68 473.169 623.75 465.306 623.75 462.164C623.75 459.023 617.46 433.461 617.46 433.461L633.24 432.241Z" fill="#BE6F72"/>
<path d="M602.58 431.851C602.58 431.851 602.98 417.694 604.58 413.372C605.394 411.353 605.981 409.249 606.33 407.099C606.33 407.099 630.12 411.401 632.09 409.831C632.09 409.831 632.48 415.333 632.88 415.723C633.28 416.113 634.88 425.948 634.45 430.67C634.02 435.392 634.45 435.382 634.45 435.382C634.45 435.382 618.33 437.743 617.94 435.382C617.55 433.021 616.37 433.031 616.37 433.031C616.37 433.031 601.8 432.591 602.58 431.851Z" fill="#3F3D56"/>
<g opacity="0.1">
<path opacity="0.1" d="M615.55 431.851C615.55 431.851 605.61 431.581 602.61 431.04C602.61 431.551 602.61 431.851 602.61 431.851C601.83 432.631 616.37 433.031 616.37 433.031C616.568 433.049 616.756 433.126 616.91 433.251C616.38 431.851 615.55 431.851 615.55 431.851Z" fill="black"/>
<path opacity="0.1" d="M632.85 415.723C632.45 415.333 632.06 409.831 632.06 409.831C631.856 409.957 631.628 410.039 631.39 410.071C631.53 411.732 631.8 414.283 632.06 414.543C632.32 414.803 634.06 424.767 633.63 429.49C633.2 434.212 633.63 434.202 633.63 434.202C633.63 434.202 620.88 436.073 617.79 434.822C617.79 434.992 617.88 435.182 617.91 435.382C618.3 437.743 634.42 435.382 634.42 435.382C634.42 435.382 634.02 435.382 634.42 430.67C634.82 425.958 633.24 416.124 632.85 415.723Z" fill="black"/>
</g>
<path d="M619.9 368.742C620.239 369.499 620.753 370.165 621.4 370.683C621.817 370.993 622.299 371.201 622.81 371.293C621.93 371.803 620.97 372.184 620.09 372.694C618.706 373.625 617.371 374.626 616.09 375.695C614.78 376.749 613.177 377.371 611.5 377.476C612.089 376.682 612.458 375.748 612.57 374.766C612.682 373.784 612.534 372.79 612.14 371.884C611.78 371.29 611.542 370.63 611.44 369.943C611.44 368.812 612.44 367.942 613.37 367.341C614.12 366.831 614.89 366.341 615.67 365.851C616.28 365.471 617.2 364.67 617.97 364.7C618.74 364.73 618.83 365.411 618.97 366.111C619.168 367.024 619.481 367.908 619.9 368.742Z" fill="#BE6F72"/>
<path opacity="0.1" d="M619.9 368.742C620.239 369.499 620.753 370.165 621.4 370.683C621.817 370.993 622.299 371.201 622.81 371.293C621.93 371.803 620.97 372.184 620.09 372.694C618.706 373.625 617.371 374.626 616.09 375.695C614.78 376.749 613.177 377.371 611.5 377.476C612.089 376.682 612.458 375.748 612.57 374.766C612.682 373.784 612.534 372.79 612.14 371.884C611.78 371.29 611.542 370.63 611.44 369.943C611.44 368.812 612.44 367.942 613.37 367.341C614.12 366.831 614.89 366.341 615.67 365.851C616.28 365.471 617.2 364.67 617.97 364.7C618.74 364.73 618.83 365.411 618.97 366.111C619.168 367.024 619.481 367.908 619.9 368.742Z" fill="black"/>
<path d="M629.11 391.943C634.103 391.943 638.15 387.893 638.15 382.898C638.15 377.904 634.103 373.854 629.11 373.854C624.117 373.854 620.07 377.904 620.07 382.898C620.07 387.893 624.117 391.943 629.11 391.943Z" fill="#BE6F72"/>
<path d="M641.88 511.267C641.88 512.057 640.31 514.018 640.31 514.018C637.117 514.41 633.878 514.004 630.88 512.837C630.09 512.447 631.27 510.086 631.27 510.086L631.36 509.896C631.72 508.97 632.223 508.106 632.85 507.335C633.63 506.554 634.1 503.333 634.1 503.333C636.54 499.331 640.87 505.064 640.87 505.064C640.87 505.064 641.42 508.065 641.71 509.886C641.81 510.536 641.88 511.066 641.88 511.267Z" fill="#FF6F61"/>
<path opacity="0.1" d="M641.88 511.266C641.88 512.057 640.31 514.018 640.31 514.018C637.117 514.41 633.878 514.004 630.88 512.837C630.09 512.447 631.27 510.086 631.27 510.086L631.36 509.896C634.038 511.14 636.969 511.743 639.92 511.657L641.71 509.866C641.81 510.536 641.88 511.066 641.88 511.266Z" fill="black"/>
<path d="M611.03 372.864C615.912 372.864 619.87 368.904 619.87 364.02C619.87 359.135 615.912 355.176 611.03 355.176C606.148 355.176 602.19 359.135 602.19 364.02C602.19 368.904 606.148 372.864 611.03 372.864Z" fill="#BE6F72"/>
<path d="M603.9 381.708C601.96 383.559 601.64 386.49 601.44 389.161L601.14 393.073C601.032 394.127 601.008 395.187 601.07 396.245C601.07 396.895 601.23 397.555 601.29 398.245C601.35 398.936 601.37 399.806 601.38 400.597V406.379C601.285 407.572 601.506 408.77 602.02 409.851C602.294 410.373 602.755 410.774 603.31 410.974C603.865 411.174 604.475 411.159 605.02 410.931C605.641 410.452 606.079 409.774 606.26 409.01C607.235 406.664 607.907 404.203 608.26 401.687C608.34 400.817 608.35 399.946 608.43 399.076C608.51 398.205 608.66 397.295 608.79 396.415C609.35 392.733 609.6 389.011 609.85 385.3C609.92 384.199 610.91 379.867 609.47 379.387C608.77 379.157 607.32 379.877 606.65 380.117C605.636 380.457 604.7 380.998 603.9 381.708Z" fill="#BE6F72"/>
<path opacity="0.1" d="M603.9 381.708C601.96 383.559 601.64 386.49 601.44 389.161L601.14 393.073C601.032 394.127 601.008 395.187 601.07 396.245C601.07 396.895 601.23 397.555 601.29 398.245C601.35 398.936 601.37 399.806 601.38 400.597V406.379C601.285 407.572 601.506 408.77 602.02 409.851C602.294 410.373 602.755 410.774 603.31 410.974C603.865 411.174 604.475 411.159 605.02 410.931C605.641 410.452 606.079 409.774 606.26 409.01C607.235 406.664 607.907 404.203 608.26 401.687C608.34 400.817 608.35 399.946 608.43 399.076C608.51 398.205 608.66 397.295 608.79 396.415C609.35 392.733 609.6 389.011 609.85 385.3C609.92 384.199 610.91 379.867 609.47 379.387C608.77 379.157 607.32 379.877 606.65 380.117C605.636 380.457 604.7 380.998 603.9 381.708Z" fill="black"/>
<path d="M622.23 369.722C622.23 369.722 615.55 374.835 611.62 376.015C611.62 376.015 609.29 378.676 608.89 379.317C608.49 379.957 607.69 387.02 606.89 388.601C606.09 390.182 604.14 393.713 606.89 397.245C606.89 397.245 607.67 400.787 607.28 401.967C606.89 403.148 605.46 407.47 606.76 407.67C608.06 407.87 612 410.611 615.53 409.831C619.06 409.05 632.24 412.832 632.24 412.832C632.24 412.832 634.42 392.573 636 388.991L632.46 387.811C632.46 387.811 622.64 381.918 628.53 372.874C628.52 372.874 623 371.693 622.23 369.722Z" fill="#FF6F61"/>
<path d="M597.84 393.403L605.96 399.156C606.063 399.231 606.187 399.272 606.315 399.272C606.443 399.272 606.567 399.231 606.67 399.156L608.87 397.505C608.938 397.447 608.992 397.375 609.029 397.294C609.066 397.212 609.086 397.124 609.086 397.035C609.086 396.946 609.066 396.857 609.029 396.776C608.992 396.695 608.938 396.623 608.87 396.565L602.62 391.012C602.539 390.938 602.439 390.888 602.332 390.867C602.224 390.846 602.113 390.854 602.01 390.892L598 392.333C597.895 392.369 597.801 392.434 597.73 392.519C597.658 392.605 597.612 392.709 597.596 392.819C597.579 392.93 597.593 393.043 597.636 393.145C597.679 393.248 597.75 393.338 597.84 393.403Z" fill="#3F3D56"/>
<path d="M600.57 410.731C599.996 408.738 599.71 406.673 599.72 404.598L599.6 401.827C599.479 400.751 599.578 399.662 599.89 398.626C600.198 397.915 600.66 397.281 601.243 396.771C601.826 396.26 602.515 395.886 603.26 395.674C604.753 395.26 606.313 395.147 607.85 395.344C608.057 395.345 608.261 395.4 608.44 395.504C608.597 395.649 608.708 395.837 608.76 396.044C608.987 396.488 609.121 396.974 609.152 397.471C609.183 397.969 609.111 398.467 608.94 398.936C608.708 399.317 608.394 399.642 608.02 399.886C606.93 400.666 605.66 401.187 604.63 402.037C604.421 402.179 604.26 402.381 604.17 402.617C604.12 402.825 604.12 403.04 604.17 403.248C604.298 403.798 604.472 404.337 604.69 404.858C604.778 405.12 604.933 405.355 605.14 405.539C605.33 405.699 605.58 405.759 605.78 405.909C606.21 406.259 607.11 406.719 607.06 407.269C606.91 409.27 605.71 411.511 605.24 413.492C604.34 417.364 601.15 412.422 600.57 410.731Z" fill="#BE6F72"/>
<g opacity="0.1">
<path opacity="0.1" d="M613.2 409.831H612.98C613.829 409.996 614.701 409.996 615.55 409.831H615.8C614.938 409.705 614.062 409.705 613.2 409.831Z" fill="black"/>
<path opacity="0.1" d="M633.83 388.401C632.42 391.572 630.34 408.75 629.97 412.162C631.35 412.522 632.26 412.782 632.26 412.782C632.26 412.782 634.42 392.573 636 388.991L633.83 388.401Z" fill="black"/>
</g>
<path d="M629.42 383.179C629.494 383.574 629.646 383.95 629.867 384.285C630.089 384.62 630.375 384.907 630.71 385.129C631.545 385.829 632.311 386.606 633 387.451C633.988 388.841 634.754 390.377 635.27 392.003C636.02 394.038 636.651 396.116 637.16 398.225C632.16 400.546 626.48 400.436 621.16 401.967C618.869 402.571 616.792 403.801 615.16 405.519C614.346 406.382 613.728 407.411 613.346 408.535C612.965 409.658 612.83 410.851 612.95 412.032C612.958 412.17 612.999 412.303 613.07 412.422C613.157 412.52 613.265 412.596 613.387 412.645C613.508 412.693 613.64 412.713 613.77 412.702C615.099 412.7 616.39 412.257 617.44 411.441C618.478 410.63 619.42 409.704 620.25 408.68C620.765 408.009 621.458 407.496 622.25 407.199C625.14 406.319 628.25 406.369 631.25 406.319C635.737 406.231 640.215 405.877 644.66 405.259C644.822 405.278 644.987 405.26 645.141 405.207C645.295 405.153 645.436 405.065 645.551 404.95C645.667 404.834 645.755 404.694 645.808 404.539C645.862 404.385 645.879 404.22 645.86 404.058C646.3 398.155 644.11 392.393 641.86 386.92C640.96 384.726 640.033 382.542 639.08 380.367C638.295 378.243 637.144 376.272 635.68 374.545C635.124 373.917 634.443 373.412 633.68 373.064C632.82 372.753 631.914 372.584 631 372.564C629.545 372.367 628.071 372.341 626.61 372.484C626.377 373.221 626.236 373.983 626.19 374.755C626.27 377.456 627.45 379.987 628.61 382.428C628.76 382.798 629.19 382.818 629.42 383.179Z" fill="#BE6F72"/>
<path opacity="0.1" d="M613.41 388.241C612.733 389.399 612.388 390.721 612.41 392.063C612.412 392.593 612.497 393.119 612.66 393.623C612.933 394.331 613.361 394.968 613.914 395.487C614.466 396.007 615.128 396.395 615.85 396.625" stroke="black" stroke-miterlimit="10"/>
<path d="M618.5 355.376C618.007 355.374 617.518 355.452 617.05 355.606C615.74 353.605 612.66 352.225 609.05 352.225C604.27 352.225 600.4 354.696 600.4 357.737C600.4 360.778 604.27 363.24 609.05 363.24C610.84 363.259 612.612 362.883 614.24 362.139C614.606 362.897 615.169 363.543 615.869 364.01C616.569 364.476 617.382 364.747 618.222 364.793C619.062 364.839 619.899 364.66 620.646 364.273C621.394 363.885 622.023 363.305 622.471 362.592C622.918 361.879 623.166 361.059 623.189 360.217C623.212 359.376 623.009 358.544 622.602 357.807C622.194 357.07 621.597 356.456 620.872 356.029C620.148 355.601 619.321 355.376 618.48 355.376H618.5Z" fill="#3F3D56"/>
<path opacity="0.1" d="M618.89 363.63C618.003 363.63 617.135 363.379 616.385 362.907C615.634 362.434 615.033 361.759 614.65 360.959C613.022 361.703 611.25 362.079 609.46 362.059C604.69 362.059 600.82 359.598 600.82 356.557C600.805 356.373 600.805 356.189 600.82 356.006C600.535 356.539 600.384 357.133 600.38 357.737C600.38 360.738 604.25 363.24 609.03 363.24C610.82 363.259 612.592 362.883 614.22 362.139C614.651 363.032 615.352 363.767 616.224 364.238C617.097 364.709 618.095 364.893 619.078 364.764C620.061 364.634 620.978 364.197 621.698 363.516C622.419 362.834 622.906 361.943 623.09 360.969C622.71 361.761 622.114 362.431 621.371 362.902C620.629 363.372 619.769 363.625 618.89 363.63Z" fill="black"/>
<path opacity="0.1" d="M599.23 355.556C600.554 352.843 602.758 350.659 605.482 349.36C608.206 348.061 611.29 347.724 614.23 348.403C616.287 347.132 618.636 346.41 621.052 346.306C623.468 346.203 625.87 346.721 628.029 347.81C630.188 348.9 632.031 350.526 633.383 352.532C634.735 354.538 635.55 356.857 635.75 359.268C635.75 358.878 635.75 358.488 635.75 358.087C635.745 355.571 635.068 353.102 633.791 350.934C632.514 348.767 630.682 346.979 628.484 345.756C626.286 344.532 623.802 343.918 621.288 343.975C618.773 344.032 616.32 344.76 614.18 346.082C611.24 345.403 608.156 345.74 605.432 347.039C602.708 348.338 600.504 350.522 599.18 353.235C597.531 354.796 596.226 356.684 595.349 358.779C594.473 360.874 594.044 363.13 594.09 365.401C594.09 365.801 594.09 366.191 594.09 366.581C594.286 362.373 596.133 358.411 599.23 355.556Z" fill="black"/>
<path d="M689.39 358.558C692 353.725 689.04 347.793 685.63 343.481C682.22 339.169 678.08 334.687 678.17 329.184C678.29 321.291 686.67 316.629 693.37 312.437C698.337 309.323 702.916 305.628 707.01 301.432C708.73 299.824 710.152 297.923 711.21 295.819C712.59 292.728 712.55 289.216 712.47 285.815C712.177 274.543 711.62 263.284 710.8 252.039" stroke="#3F3D56" stroke-width="4" stroke-miterlimit="10"/>
<path d="M723.52 251.439C723.425 249.378 722.812 247.374 721.739 245.611C720.666 243.849 719.167 242.385 717.38 241.355L714.62 246.807L714.7 240.204C713.388 239.812 712.018 239.646 710.65 239.714C708.218 239.827 705.874 240.66 703.915 242.106C701.955 243.552 700.469 245.547 699.643 247.839C698.817 250.13 698.689 252.616 699.275 254.98C699.861 257.344 701.135 259.482 702.935 261.122C704.735 262.762 706.981 263.831 709.389 264.194C711.797 264.557 714.258 264.198 716.461 263.161C718.665 262.125 720.511 260.458 721.768 258.371C723.024 256.285 723.634 253.872 723.52 251.439Z" fill="#FE8338"/>
<path d="M701.57 334.807C700.279 337.319 698.163 339.311 695.578 340.449C692.994 341.586 690.096 341.8 687.373 341.054C684.649 340.308 682.264 338.648 680.619 336.353C678.973 334.057 678.166 331.265 678.334 328.444C678.502 325.624 679.633 322.947 681.539 320.863C683.445 318.778 686.01 317.413 688.803 316.995C691.596 316.578 694.447 317.134 696.879 318.57C699.311 320.006 701.176 322.234 702.16 324.882L694.47 331.145L702.93 329.144C702.938 331.114 702.472 333.056 701.57 334.807Z" fill="#FE8338"/>
<path d="M695.49 310.886C692.468 311.031 689.498 310.058 687.148 308.152C684.797 306.246 683.231 303.541 682.747 300.553C682.263 297.565 682.897 294.503 684.526 291.953C686.155 289.402 688.666 287.541 691.58 286.725L691.52 291.797L694.31 286.285C697.572 286.135 700.759 287.287 703.173 289.488C705.586 291.688 707.027 294.757 707.18 298.02C707.257 299.636 707.014 301.25 706.466 302.772C705.919 304.294 705.077 305.693 703.988 306.889C702.9 308.085 701.586 309.054 700.123 309.742C698.659 310.429 697.075 310.821 695.46 310.896L695.49 310.886Z" fill="#FE8338"/>
<path d="M725.37 290.997C723.462 291.094 721.557 290.746 719.806 289.979C718.056 289.212 716.508 288.048 715.285 286.579C714.062 285.11 713.198 283.377 712.761 281.516C712.323 279.655 712.325 277.718 712.766 275.858C713.206 273.998 714.073 272.266 715.299 270.799C716.524 269.332 718.074 268.171 719.826 267.407C721.578 266.643 723.483 266.298 725.391 266.399C727.3 266.499 729.158 267.043 730.82 267.987L728.64 273.989L733.12 269.687C734.314 270.771 735.281 272.081 735.968 273.54C736.654 274.999 737.046 276.58 737.12 278.191C737.18 279.331 737.075 280.473 736.81 281.583C736.183 284.181 734.727 286.506 732.664 288.204C730.6 289.902 728.04 290.883 725.37 290.997Z" fill="#FE8338"/>
<path opacity="0.1" d="M721.87 254.721C719.03 255.041 716.26 255.921 713.41 256.101C710.56 256.281 707.41 255.591 705.62 253.37C704.784 252.083 704.026 250.746 703.35 249.368C702.57 248.156 701.506 247.154 700.25 246.447C699.452 248.008 698.997 249.722 698.914 251.473C698.831 253.225 699.124 254.974 699.771 256.603C700.419 258.233 701.407 259.705 702.669 260.922C703.931 262.139 705.438 263.072 707.09 263.659C708.742 264.246 710.499 264.473 712.246 264.325C713.992 264.178 715.687 263.659 717.217 262.803C718.747 261.948 720.077 260.775 721.117 259.364C722.157 257.953 722.885 256.335 723.25 254.62C722.79 254.64 722.33 254.67 721.87 254.721Z" fill="black"/>
<path opacity="0.1" d="M725.37 290.997C723.248 291.095 721.138 290.642 719.242 289.683C717.347 288.723 715.732 287.29 714.554 285.523C713.376 283.755 712.674 281.712 712.517 279.593C712.361 277.474 712.754 275.351 713.66 273.429C714.638 274.085 715.481 274.924 716.14 275.9C716.871 277.305 717.686 278.665 718.58 279.972C720.49 282.233 723.77 282.973 726.74 282.833C729.71 282.693 732.58 281.833 735.54 281.583C735.95 281.583 736.37 281.513 736.78 281.503C736.169 284.112 734.725 286.45 732.666 288.163C730.607 289.877 728.045 290.872 725.37 290.997Z" fill="black"/>
<path opacity="0.1" d="M695.49 310.886C693.386 310.989 691.291 310.55 689.405 309.61C687.519 308.67 685.906 307.262 684.721 305.519C683.536 303.777 682.817 301.759 682.635 299.66C682.453 297.56 682.813 295.449 683.68 293.528C684.689 294.2 685.57 295.047 686.28 296.029C687.28 297.38 687.83 298.941 688.95 300.181C691.03 302.502 694.52 303.313 697.67 303.243C700.82 303.172 703.67 302.422 706.67 302.192C705.928 304.616 704.455 306.752 702.455 308.308C700.454 309.864 698.021 310.764 695.49 310.886Z" fill="black"/>
<path opacity="0.1" d="M701.57 334.807C700.102 337.555 697.648 339.644 694.702 340.655C691.756 341.666 688.537 341.523 685.692 340.256C682.847 338.988 680.587 336.689 679.368 333.822C678.149 330.955 678.06 327.732 679.12 324.802C680.136 325.465 681.046 326.278 681.82 327.213C683 328.644 683.77 330.215 685.12 331.595C687.64 334.066 691.7 335.077 695.32 335.177C697.409 335.175 699.496 335.051 701.57 334.807Z" fill="black"/>
<path d="M331 369.472C331.013 367.938 330.666 366.421 329.987 365.045C329.308 363.669 328.316 362.472 327.09 361.549C327.075 358.836 326.102 356.216 324.344 354.151C322.586 352.086 320.155 350.709 317.48 350.264C317.067 348.292 316.142 346.463 314.8 344.962C313.457 343.461 311.743 342.339 309.83 341.71C309.366 341.564 308.891 341.454 308.41 341.38H308.27H308.02H307.82H307.6H307.33H306.72C304.063 341.441 301.513 342.441 299.522 344.202C297.531 345.964 296.226 348.373 295.84 351.004C292.33 350.194 289.12 351.244 288.53 353.465C288.382 354.055 288.417 354.676 288.63 355.246C289.23 356.967 291.18 358.617 293.79 359.428L294.13 359.528L294.64 359.658H294.75C294.193 360.844 293.906 362.139 293.91 363.45C293.902 365.058 294.337 366.637 295.168 368.014C295.999 369.391 297.194 370.512 298.62 371.253L298.39 371.393C298.065 371.689 297.806 372.051 297.63 372.454C296.999 373.57 296.505 374.76 296.16 375.995C295.91 377.056 295.87 378.156 295.56 379.207C294.98 381.138 293.5 382.768 293.33 384.779C293.25 385.68 293.4 386.78 292.76 387.36C292.603 387.497 292.432 387.618 292.25 387.721C291.807 388.034 291.43 388.432 291.14 388.891C290.948 389.308 290.684 389.687 290.36 390.012C289.78 390.442 288.83 390.402 288.55 391.072C288.27 391.742 289 392.533 288.83 393.263C288.66 393.993 288.04 394.133 287.59 394.544C287.067 395.107 286.698 395.796 286.52 396.545C285.574 396.725 284.6 396.695 283.666 396.457C282.733 396.218 281.864 395.777 281.12 395.164C281.375 395.81 281.563 396.48 281.68 397.165C280.81 396.5 279.823 396.005 278.77 395.704C277.586 395.165 276.529 394.381 275.67 393.403L277.33 393.173L270 381.978L267.83 381.528L269.77 385.259C269.608 385.333 269.464 385.443 269.35 385.58C269.236 385.716 269.154 385.877 269.11 386.05C269.007 386.465 268.983 386.896 269.04 387.32C269.14 388.331 269.307 389.334 269.54 390.322L270.1 392.943C270.15 393.183 270.21 393.433 270.28 393.673C269.549 393.637 268.816 393.719 268.11 393.913C266.656 393.373 265.142 393.013 263.6 392.843C263.27 392.776 262.93 392.776 262.6 392.843C262.226 393.02 261.901 393.284 261.65 393.613C260.388 395.078 259.266 396.66 258.3 398.335C254.3 405.199 249.09 411.191 244.16 417.394C240.76 418.775 237.33 420.085 233.9 421.396L226.52 424.217C225.081 424.87 223.52 425.211 221.94 425.218C221.24 425.218 220.37 425.068 219.94 425.668C219.747 425.98 219.596 426.317 219.49 426.668L218.73 426.748C218.38 425.547 217.776 424.435 216.96 423.487C216.78 423.518 216.61 423.592 216.466 423.704C216.321 423.815 216.206 423.961 216.13 424.127C215.95 424.457 215.84 424.817 215.63 425.128C215.24 425.708 214.55 425.988 214.06 426.478C213.57 426.968 213.26 427.729 212.72 428.229C211.984 428.774 211.119 429.118 210.21 429.229C208.84 429.549 207.518 430.051 206.28 430.72C205.827 431.004 205.34 431.229 204.83 431.39C204.267 431.5 203.69 431.521 203.12 431.45L199.22 431.16C198.87 431.117 198.515 431.134 198.17 431.21C197.778 431.37 197.448 431.649 197.225 432.009C197.002 432.368 196.899 432.789 196.93 433.211C196.98 433.635 197.116 434.044 197.329 434.414C197.543 434.784 197.829 435.106 198.17 435.362C198.845 435.861 199.594 436.249 200.39 436.513C203.765 437.827 207.244 438.858 210.79 439.594V440.384C213.271 441.636 216.011 442.287 218.79 442.285C218.996 442.299 219.202 442.261 219.39 442.175C219.645 441.984 219.823 441.707 219.89 441.395C220.72 438.913 221.243 436.34 221.45 433.731C221.938 433.699 222.416 433.577 222.86 433.371C224.2 433.001 225.54 433.921 226.93 434.072C228.64 434.262 230.22 433.261 231.84 432.651L232.54 432.421C232.079 433.014 231.533 433.537 230.92 433.972C230.25 434.452 229.5 434.812 228.85 435.312C228.3 435.811 227.711 436.266 227.09 436.673C226.652 436.875 226.201 437.049 225.74 437.193C225.058 437.446 224.41 437.782 223.81 438.193C223.278 438.51 222.829 438.949 222.5 439.474C222.336 439.742 222.24 440.047 222.221 440.361C222.201 440.675 222.26 440.989 222.39 441.275C222.528 441.508 222.715 441.71 222.938 441.865C223.16 442.02 223.413 442.126 223.68 442.175C224.207 442.255 224.743 442.255 225.27 442.175C227.39 442.015 229.5 441.825 231.61 441.635C232.502 441.578 233.388 441.451 234.26 441.255C234.72 441.145 235.18 440.995 235.64 440.865C236.43 440.665 237.237 440.544 238.05 440.504C238.286 440.486 238.523 440.51 238.75 440.574C239.24 440.735 239.59 441.235 240.09 441.335C240.429 441.378 240.773 441.333 241.09 441.205C242.631 440.873 244.203 440.705 245.78 440.705C246.47 440.705 247.28 440.534 247.6 439.894C247.92 439.254 247.34 438.223 247.08 437.373C246.947 436.829 246.873 436.272 246.86 435.712C246.739 434.334 246.345 432.994 245.7 431.771C245.352 431.2 245.061 430.597 244.83 429.97C247.854 428.82 250.747 427.351 253.46 425.588C254.946 424.511 256.612 423.708 258.38 423.217C260.468 422.968 262.585 423.214 264.56 423.937C269.368 425.331 274.098 426.981 278.73 428.879C280.94 429.79 283.14 430.75 285.42 431.44C286.085 432.333 286.889 433.113 287.8 433.751C289.375 434.638 291.144 435.122 292.95 435.162C295.36 435.382 297.78 435.472 300.2 435.432C302.053 435.513 303.899 435.17 305.6 434.432C306.006 434.229 306.385 433.977 306.73 433.681C307.383 433.737 308.04 433.648 308.656 433.422C309.271 433.195 309.829 432.837 310.29 432.371C311.601 431.247 312.545 429.755 313 428.089C313.59 425.808 313.14 423.087 314.54 421.266C314.91 420.766 315.4 420.365 315.77 419.865C316.218 419.18 316.442 418.372 316.41 417.554C316.426 417.522 316.447 417.492 316.47 417.464C316.777 416.729 316.979 415.954 317.07 415.163C317.242 414.541 317.459 413.932 317.72 413.342C318.431 411.577 319.052 409.778 319.58 407.95C319.941 406.734 320.228 405.498 320.44 404.248C320.59 403.248 320.68 402.247 320.76 401.247C320.866 399.67 321.172 398.114 321.67 396.615C322.922 393.046 323.63 389.309 323.77 385.53V385.309C325.612 385.098 327.309 384.204 328.527 382.805C329.744 381.405 330.395 379.601 330.35 377.746C330.35 376.632 330.115 375.531 329.66 374.515C330.545 372.982 331.007 371.242 331 369.472ZM295.22 412.962C295.33 413.352 295.46 413.732 295.59 414.113C295 413.542 294.43 412.952 293.84 412.372C294.07 412.452 294.31 412.522 294.53 412.612C294.761 412.706 294.982 412.824 295.19 412.962H295.22ZM292.39 411.041C288.93 408.04 284.93 405.709 281.39 402.797C283.32 403.748 285.2 404.858 287.06 405.919C289.267 407.179 291.503 408.39 293.77 409.55C293.398 410.132 292.919 410.637 292.36 411.041H292.39ZM293.86 403.478L294.03 403.308C294.03 403.738 294.03 404.128 294.03 404.498L293.1 404.178C293.357 403.96 293.601 403.726 293.83 403.478H293.86ZM263.43 411.581C264.849 409.974 266.084 408.212 267.11 406.329C268.48 408.72 270.71 410.451 272.6 412.462C269.55 412.072 266.49 411.741 263.43 411.581Z" fill="url(#paint1_linear_209_314)"/>
<path d="M268.35 382.448L270.53 382.888L277.96 393.883L274.69 394.324L268.35 382.448Z" fill="#2F2E41"/>
<path d="M215.49 427.048C216.081 428.989 216.81 430.884 217.67 432.721C220.132 432.201 222.555 431.508 224.92 430.65C224.454 429.956 223.95 429.288 223.41 428.649C222.823 428.01 222.129 427.479 221.36 427.078C220.54 426.893 219.69 426.893 218.87 427.078C217.75 427.048 216.62 427.068 215.49 427.048Z" fill="#FBBEBE"/>
<path d="M221.37 429.98C220.779 429.715 220.251 429.326 219.823 428.839C219.395 428.352 219.077 427.779 218.89 427.159C218.509 425.912 217.864 424.762 217 423.787C216.818 423.812 216.645 423.883 216.498 423.993C216.351 424.103 216.235 424.249 216.16 424.417C215.98 424.737 215.87 425.098 215.67 425.418C215.27 425.988 214.57 426.268 214.07 426.748C213.57 427.229 213.27 427.979 212.73 428.469C211.988 429.016 211.116 429.361 210.2 429.47C208.808 429.784 207.464 430.278 206.2 430.94C205.737 431.217 205.244 431.439 204.73 431.601C204.16 431.686 203.58 431.686 203.01 431.601L199.07 431.32C198.739 431.266 198.401 431.266 198.07 431.32C197.668 431.466 197.326 431.742 197.099 432.105C196.873 432.468 196.774 432.896 196.82 433.321C196.867 433.743 197.002 434.15 197.218 434.516C197.433 434.882 197.724 435.197 198.07 435.442C198.754 435.934 199.51 436.319 200.31 436.583C203.74 437.875 207.273 438.879 210.87 439.584V440.365C213.375 441.595 216.129 442.235 218.92 442.235C219.125 442.248 219.33 442.214 219.52 442.135C219.775 441.944 219.953 441.667 220.02 441.355C220.968 438.592 221.523 435.709 221.67 432.791C221.734 432.05 221.677 431.303 221.5 430.58C221.28 429.87 222.02 430.17 221.34 429.89" fill="#2F2E41"/>
<path d="M296.93 415.123C285.25 415.823 273.71 412.402 262.01 412.042C260.558 411.946 259.099 412.037 257.67 412.312C256.182 412.716 254.74 413.276 253.37 413.983C247.1 416.904 240.61 419.325 234.13 421.736L226.68 424.507C225.231 425.162 223.66 425.503 222.07 425.508C221.36 425.508 220.49 425.358 220.07 425.948C218.86 427.749 219.43 430.38 220.23 432.401C220.49 433.051 220.93 433.762 221.63 433.832C222.121 433.798 222.602 433.676 223.05 433.471C224.4 433.111 225.75 434.022 227.15 434.172C228.87 434.352 230.47 433.371 232.1 432.771C234.8 431.771 237.74 431.771 240.58 431.33C245.33 430.54 249.74 428.329 253.86 425.818C255.358 424.75 257.034 423.957 258.81 423.477C260.914 423.229 263.046 423.472 265.04 424.187C269.886 425.555 274.656 427.178 279.33 429.049C281.76 430.108 284.251 431.02 286.79 431.781C292.332 433.231 298.191 432.881 303.52 430.78C305.39 430.04 307.42 428.779 307.52 426.718C307.59 425.568 306.69 424.557 306.1 423.567C305.72 422.937 305.33 422.306 304.92 421.696C302.92 418.795 300.48 414.913 296.93 415.123Z" fill="#2F2E41"/>
<path opacity="0.1" d="M296.93 415.123C285.25 415.823 273.71 412.402 262.01 412.042C260.558 411.946 259.099 412.037 257.67 412.312C256.182 412.716 254.74 413.276 253.37 413.983C247.1 416.904 240.61 419.325 234.13 421.736L226.68 424.507C225.231 425.162 223.66 425.503 222.07 425.508C221.36 425.508 220.49 425.358 220.07 425.948C218.86 427.749 219.43 430.38 220.23 432.401C220.49 433.051 220.93 433.762 221.63 433.832C222.121 433.798 222.602 433.676 223.05 433.471C224.4 433.111 225.75 434.022 227.15 434.172C228.87 434.352 230.47 433.371 232.1 432.771C234.8 431.771 237.74 431.771 240.58 431.33C245.33 430.54 249.74 428.329 253.86 425.818C255.358 424.75 257.034 423.957 258.81 423.477C260.914 423.229 263.046 423.472 265.04 424.187C269.886 425.555 274.656 427.178 279.33 429.049C281.76 430.108 284.251 431.02 286.79 431.781C292.332 433.231 298.191 432.881 303.52 430.78C305.39 430.04 307.42 428.779 307.52 426.718C307.59 425.568 306.69 424.557 306.1 423.567C305.72 422.937 305.33 422.306 304.92 421.696C302.92 418.795 300.48 414.913 296.93 415.123Z" fill="black"/>
<path d="M237.92 427.589C239.747 428.209 241.59 428.782 243.45 429.309C244.45 427.599 246.45 426.408 246.88 424.447C246.905 424.362 246.905 424.272 246.88 424.187C246.831 424.104 246.758 424.038 246.67 423.997C245.333 423.263 243.852 422.829 242.33 422.726C241.13 422.656 240.58 423.907 240.04 424.787C239.83 425.178 238.41 427.779 237.92 427.589Z" fill="#FBBEBE"/>
<path d="M240.48 426.368C239.933 426.276 239.412 426.07 238.949 425.765C238.486 425.461 238.091 425.063 237.79 424.597C237.54 424.147 237.26 423.537 236.74 423.597C236.22 423.657 236.05 424.197 235.94 424.667C235.594 426.44 235.088 428.178 234.43 429.86C233.77 431.55 232.651 433.023 231.2 434.112C230.52 434.582 229.77 434.932 229.1 435.432C228.545 435.924 227.954 436.372 227.33 436.773C226.889 436.971 226.434 437.138 225.97 437.273C225.287 437.53 224.636 437.866 224.03 438.273C223.491 438.583 223.034 439.019 222.7 439.544C222.535 439.807 222.439 440.107 222.421 440.417C222.404 440.726 222.465 441.035 222.6 441.315C222.74 441.545 222.927 441.743 223.15 441.895C223.372 442.046 223.625 442.149 223.89 442.195C224.424 442.275 224.966 442.275 225.5 442.195C227.63 442.045 229.76 441.855 231.89 441.665C232.788 441.607 233.68 441.483 234.56 441.295L235.95 440.915C236.744 440.705 237.559 440.584 238.38 440.555C238.619 440.533 238.86 440.556 239.09 440.625C239.58 440.785 239.93 441.275 240.44 441.375C240.779 441.407 241.121 441.363 241.44 441.245C242.994 440.912 244.58 440.747 246.17 440.755C246.87 440.755 247.69 440.575 248.01 439.954C248.41 439.174 247.75 438.304 247.48 437.463C247.351 436.929 247.277 436.382 247.26 435.832C247.141 434.472 246.742 433.15 246.09 431.951C245.55 430.95 244.81 429.85 245.19 428.789C245.379 428.452 245.501 428.082 245.55 427.699C245.4 425.978 241.46 426.588 240.48 426.368Z" fill="#2F2E41"/>
<path d="M279.42 396.375C277.347 395.466 275.686 393.818 274.76 391.752C274.57 391.312 274.41 390.842 274.22 390.402C273.61 388.911 272.658 387.585 271.44 386.53C271.312 386.394 271.157 386.285 270.985 386.211C270.813 386.137 270.627 386.1 270.44 386.1C270.254 386.156 270.087 386.261 269.955 386.403C269.823 386.546 269.732 386.721 269.69 386.91C269.578 387.317 269.551 387.743 269.61 388.161C269.712 389.145 269.879 390.121 270.11 391.082L270.68 393.663C270.756 394.058 270.873 394.444 271.03 394.814C271.274 395.246 271.596 395.63 271.98 395.944C272.5 396.425 273.03 396.885 273.56 397.345C273.867 397.612 274.202 397.843 274.56 398.035C275.119 398.302 275.716 398.478 276.33 398.556C278.716 398.866 280.993 399.745 282.97 401.117C282.97 401.117 282.97 399.386 282.97 399.196C282.945 398.693 282.771 398.209 282.47 397.805C281.554 397.138 280.519 396.652 279.42 396.375Z" fill="#FBBEBE"/>
<path opacity="0.1" d="M279.42 396.375C277.347 395.466 275.686 393.818 274.76 391.752C274.57 391.312 274.41 390.842 274.22 390.402C273.61 388.911 272.658 387.585 271.44 386.53C271.312 386.394 271.157 386.285 270.985 386.211C270.813 386.137 270.627 386.1 270.44 386.1C270.254 386.156 270.087 386.261 269.955 386.403C269.823 386.546 269.732 386.721 269.69 386.91C269.578 387.317 269.551 387.743 269.61 388.161C269.712 389.145 269.879 390.121 270.11 391.082L270.68 393.663C270.756 394.058 270.873 394.444 271.03 394.814C271.274 395.246 271.596 395.63 271.98 395.944C272.5 396.425 273.03 396.885 273.56 397.345C273.867 397.612 274.202 397.843 274.56 398.035C275.119 398.302 275.716 398.478 276.33 398.556C278.716 398.866 280.993 399.745 282.97 401.117C282.97 401.117 282.97 399.386 282.97 399.196C282.945 398.693 282.771 398.209 282.47 397.805C281.554 397.138 280.519 396.652 279.42 396.375Z" fill="black"/>
<path d="M303.2 376.626C304.769 376.626 306.04 375.345 306.04 373.764C306.04 372.184 304.769 370.903 303.2 370.903C301.632 370.903 300.36 372.184 300.36 373.764C300.36 375.345 301.632 376.626 303.2 376.626Z" fill="#2F2E41"/>
<path d="M301.44 372.044C300.68 371.861 299.879 371.976 299.2 372.364C298.872 372.656 298.61 373.014 298.43 373.414C297.794 374.509 297.297 375.678 296.95 376.896C296.7 377.896 296.66 379.027 296.34 380.057C295.76 381.958 294.27 383.569 294.1 385.55C294.02 386.44 294.17 387.481 293.52 388.081C293.361 388.219 293.19 388.342 293.01 388.451C292.56 388.751 292.178 389.143 291.89 389.602C291.694 390.009 291.427 390.379 291.1 390.692C290.52 391.122 289.56 391.082 289.28 391.692C289 392.303 289.73 393.133 289.56 393.853C289.39 394.574 288.76 394.714 288.31 395.114C287.78 395.674 287.407 396.364 287.23 397.115C286.28 397.298 285.301 397.272 284.361 397.039C283.422 396.806 282.545 396.371 281.79 395.764C282.45 397.769 282.738 399.878 282.64 401.987C282.69 402.324 282.671 402.668 282.585 402.998C282.499 403.328 282.348 403.638 282.14 403.908C284.396 404.076 286.63 404.465 288.81 405.068C289.754 405.383 290.776 405.383 291.72 405.068C292.226 404.797 292.679 404.438 293.06 404.008C294.26 402.787 295.52 401.457 295.81 399.766C295.882 398.811 295.899 397.852 295.86 396.895C295.974 395.708 296.219 394.537 296.59 393.403C297.223 391.051 297.648 388.647 297.86 386.22C297.99 384.719 299.29 383.519 299.97 382.218C301.25 379.687 302.57 377.056 302.66 374.215C302.7 373.294 302.38 372.144 301.44 372.044Z" fill="#2F2E41"/>
<path opacity="0.1" d="M301.44 372.044C300.68 371.861 299.879 371.976 299.2 372.364C298.872 372.656 298.61 373.014 298.43 373.414C297.794 374.509 297.297 375.678 296.95 376.896C296.7 377.896 296.66 379.027 296.34 380.057C295.76 381.958 294.27 383.569 294.1 385.55C294.02 386.44 294.17 387.481 293.52 388.081C293.361 388.219 293.19 388.342 293.01 388.451C292.56 388.751 292.178 389.143 291.89 389.602C291.694 390.009 291.427 390.379 291.1 390.692C290.52 391.122 289.56 391.082 289.28 391.692C289 392.303 289.73 393.133 289.56 393.853C289.39 394.574 288.76 394.714 288.31 395.114C287.78 395.674 287.407 396.364 287.23 397.115C286.28 397.298 285.301 397.272 284.361 397.039C283.422 396.806 282.545 396.371 281.79 395.764C282.45 397.769 282.738 399.878 282.64 401.987C282.69 402.324 282.671 402.668 282.585 402.998C282.499 403.328 282.348 403.638 282.14 403.908C284.396 404.076 286.63 404.465 288.81 405.068C289.754 405.383 290.776 405.383 291.72 405.068C292.226 404.797 292.679 404.438 293.06 404.008C294.26 402.787 295.52 401.457 295.81 399.766C295.882 398.811 295.899 397.852 295.86 396.895C295.974 395.708 296.219 394.537 296.59 393.403C297.223 391.051 297.648 388.647 297.86 386.22C297.99 384.719 299.29 383.519 299.97 382.218C301.25 379.687 302.57 377.056 302.66 374.215C302.7 373.294 302.38 372.144 301.44 372.044Z" fill="black"/>
<path d="M298.78 417.584C296.35 416.424 294.57 414.273 292.6 412.422C288.85 408.89 284.26 406.419 280.31 403.088C277.69 400.897 275.31 398.345 272.48 396.505C269.945 394.897 267.074 393.894 264.09 393.573C263.761 393.498 263.419 393.498 263.09 393.573C262.712 393.734 262.384 393.993 262.14 394.324C260.865 395.763 259.73 397.321 258.75 398.976C253.75 407.48 246.64 414.623 240.75 422.526C240.615 422.69 240.516 422.881 240.46 423.087C240.435 423.393 240.513 423.699 240.68 423.957L241.88 426.298C242.55 427.619 243.63 429.149 245.07 428.889C245.718 428.701 246.299 428.33 246.74 427.819L252.12 422.666L257.76 417.274C261.06 414.123 264.42 410.891 266.58 406.849C268.26 409.771 271.25 411.681 273.29 414.353C274.07 415.353 274.71 416.484 275.41 417.564C276.52 419.285 277.79 420.906 279.05 422.566L285.52 430.82C286.34 431.986 287.355 433.001 288.52 433.821C290.115 434.69 291.894 435.167 293.71 435.212C296.14 435.429 298.58 435.516 301.02 435.472C302.888 435.547 304.75 435.206 306.47 434.472C307.327 434.095 308.06 433.482 308.582 432.704C309.104 431.926 309.395 431.016 309.42 430.08C309.32 429.111 309.002 428.177 308.49 427.349C306.15 423.177 303.13 419.655 298.78 417.584Z" fill="#2F2E41"/>
<path d="M304.95 377.946C306.16 377.946 307.14 376.961 307.14 375.745C307.14 374.53 306.16 373.544 304.95 373.544C303.741 373.544 302.76 374.53 302.76 375.745C302.76 376.961 303.741 377.946 304.95 377.946Z" fill="#E8E8F0"/>
<path d="M304.47 374.094C304.959 375.077 305.045 376.211 304.71 377.256C304.365 378.282 303.891 379.26 303.3 380.167C302.792 381.102 302.178 381.974 301.47 382.768C304.85 382.928 308.12 381.608 311.09 380.007C313.49 378.717 315.88 377.126 317.16 374.715C316.778 374.806 316.381 374.815 315.995 374.743C315.609 374.671 315.243 374.518 314.92 374.295C314.275 373.851 313.699 373.315 313.21 372.704L311.52 370.803C311.137 370.385 310.801 369.925 310.52 369.432C310.149 368.758 309.992 367.987 310.07 367.221C309.396 367.924 308.645 368.549 307.83 369.082C306.62 369.873 305.29 370.443 304.07 371.223C303.65 371.503 302.69 371.943 302.94 372.504C303.19 373.064 304.13 373.494 304.47 374.094Z" fill="#FBBEBE"/>
<path opacity="0.1" d="M304.47 374.094C304.959 375.077 305.045 376.211 304.71 377.256C304.365 378.282 303.891 379.26 303.3 380.167C302.792 381.102 302.178 381.974 301.47 382.768C304.85 382.928 308.12 381.608 311.09 380.007C313.49 378.717 315.88 377.126 317.16 374.715C316.778 374.806 316.381 374.815 315.995 374.743C315.609 374.671 315.243 374.518 314.92 374.295C314.275 373.851 313.699 373.315 313.21 372.704L311.52 370.803C311.137 370.385 310.801 369.925 310.52 369.432C310.149 368.758 309.992 367.987 310.07 367.221C309.396 367.924 308.645 368.549 307.83 369.082C306.62 369.873 305.29 370.443 304.07 371.223C303.65 371.503 302.69 371.943 302.94 372.504C303.19 373.064 304.13 373.494 304.47 374.094Z" fill="black"/>
<path d="M304.51 374.425C304.168 374.907 303.984 375.484 303.984 376.075C303.984 376.667 304.168 377.244 304.51 377.726C304.61 377.846 304.97 378.596 305.12 378.606C305.194 378.6 305.265 378.58 305.33 378.545C305.396 378.511 305.453 378.464 305.5 378.406C306.269 377.604 306.984 376.752 307.64 375.855C308.31 374.961 309.273 374.33 310.36 374.074C311.707 374.023 313.031 374.436 314.11 375.245C314.612 375.474 315.053 375.817 315.4 376.245C315.641 376.687 315.785 377.175 315.82 377.676C316.147 380.696 316.274 383.734 316.2 386.77C316.257 388.963 316.114 391.157 315.77 393.323C315.55 394.434 315.23 395.524 315.08 396.655C314.963 397.651 314.916 398.654 314.94 399.656V403.838C314.913 404.605 314.967 405.373 315.1 406.129C315.3 407.039 315.73 407.89 316.02 408.78C316.319 409.803 316.523 410.851 316.63 411.912L317.2 416.234C317.38 417.594 317.52 419.085 316.69 420.235C316.32 420.726 315.83 421.126 315.45 421.616C314.04 423.457 314.45 426.088 313.9 428.339C313.437 429.987 312.481 431.453 311.16 432.541C310.689 433.007 310.122 433.364 309.498 433.587C308.874 433.81 308.209 433.893 307.55 433.832C305.79 433.501 304.74 431.671 304.26 429.94C303.78 428.209 303.61 426.328 302.57 424.867C301.616 423.762 300.487 422.819 299.23 422.076C297.958 421.322 297.023 420.108 296.62 418.685C296.51 418.054 296.62 417.404 296.51 416.764C296.416 415.958 296.108 415.192 295.617 414.546C295.126 413.901 294.471 413.398 293.72 413.092C292.82 412.742 291.72 412.612 291.2 411.792C292.487 410.985 293.426 409.725 293.83 408.26C294.228 406.805 294.443 405.306 294.47 403.798L294.77 398.796C294.91 396.545 294.97 394.324 295.96 392.303C296.4 391.402 296.96 390.552 297.41 389.662C298.02 388.41 298.538 387.116 298.96 385.79C299.68 383.729 300.4 381.668 301.04 379.587C301.29 378.577 301.673 377.604 302.18 376.696C302.72 375.755 303.5 374.625 304.51 374.425Z" fill="#E8E8F0"/>
<path d="M293.36 407.079H294.69L294.97 405.079C295.006 404.677 295.101 404.283 295.25 403.908C295.47 403.51 295.728 403.135 296.02 402.788C297.32 400.937 297.23 398.486 297.55 396.235C298.13 393.26 299.112 390.379 300.47 387.671L303.05 381.918C303.285 381.448 303.472 380.955 303.61 380.447C303.718 379.887 303.772 379.317 303.77 378.747C303.77 377.856 304.05 374.615 304.08 373.744C304.08 373.414 303.35 373.594 303.2 373.304C302.88 372.664 302.44 374.395 301.83 374.775C301.257 375.212 300.84 375.823 300.64 376.516C300.08 377.956 299.74 379.517 299.22 380.948C298.768 382.441 297.938 383.792 296.81 384.869C296.28 385.33 295.67 385.7 295.17 386.2C293.57 387.781 293.41 390.292 293.36 392.553C293.32 393.933 293.06 407.079 293.36 407.079Z" fill="#2F2E41"/>
<path d="M312.5 372.034C311.882 372.357 311.346 372.819 310.935 373.382C310.524 373.946 310.249 374.597 310.13 375.285C309.902 376.665 309.498 378.009 308.93 379.287C307.31 382.108 303.18 382.928 302.03 385.98C301.741 387.006 301.586 388.065 301.57 389.131C301.37 391.322 300.65 393.433 300.43 395.614C300.32 397.312 300.36 399.016 300.55 400.707L302 417.934C302.278 420.468 302.132 423.031 301.57 425.518C303.056 425.73 304.572 425.478 305.91 424.797C307.26 424.177 308.5 423.327 309.81 422.606C312.05 421.366 314.53 420.496 316.5 418.845C316.853 418.563 317.157 418.225 317.4 417.844C317.701 417.121 317.903 416.361 318 415.583C318.17 414.974 318.387 414.378 318.65 413.802C319.372 412.063 319.999 410.287 320.53 408.48C320.891 407.285 321.178 406.069 321.39 404.838C321.55 403.838 321.64 402.838 321.72 401.837C321.824 400.286 322.134 398.755 322.64 397.285C323.895 393.772 324.606 390.088 324.75 386.36C324.789 385.824 324.752 385.285 324.64 384.759C324.42 384.116 324.125 383.502 323.76 382.929C323.16 381.798 322.76 380.557 322.24 379.407C320.822 376.873 318.79 374.737 316.33 373.194C315.17 372.404 313.81 371.563 312.5 372.034Z" fill="#2F2E41"/>
<path d="M282.29 406.149C281.264 405.61 280.334 404.903 279.54 404.058C279.18 403.638 278.88 403.168 278.54 402.747C277.613 401.749 276.407 401.052 275.08 400.747C273.767 400.458 272.424 400.327 271.08 400.356C270.178 400.296 269.272 400.404 268.41 400.676C267.98 400.821 267.593 401.07 267.284 401.402C266.975 401.734 266.753 402.138 266.64 402.577C266.604 403.121 266.709 403.665 266.946 404.156C267.182 404.647 267.542 405.068 267.99 405.379C268.771 406.02 269.693 406.466 270.68 406.679C271.484 406.822 272.295 406.919 273.11 406.969C277.89 407.47 282.16 410.071 286.35 412.442C290.03 414.536 293.783 416.484 297.61 418.285C297.758 417.14 297.822 415.987 297.8 414.833C297.8 413.973 297.73 412.652 296.92 412.142C295.768 411.659 294.568 411.3 293.34 411.071C290.872 410.265 288.463 409.289 286.13 408.15C284.81 407.58 283.54 406.879 282.29 406.149Z" fill="#FBBEBE"/>
<path d="M303.2 373.114C307.905 373.114 311.72 369.275 311.72 364.54C311.72 359.805 307.905 355.966 303.2 355.966C298.495 355.966 294.68 359.805 294.68 364.54C294.68 369.275 298.495 373.114 303.2 373.114Z" fill="#FBBEBE"/>
<path d="M314.93 381.748C314.25 382.703 313.695 383.742 313.28 384.839C312.28 387 310.58 388.841 309.75 391.132C308.92 393.423 308.91 396.365 307.2 398.235C306.858 398.522 306.599 398.895 306.45 399.316C306.443 399.578 306.416 399.839 306.37 400.096C306.12 400.777 305.01 400.807 304.8 401.507C304.74 401.707 304.8 401.927 304.7 402.127C304.53 402.577 303.93 402.647 303.54 402.918C302.71 403.478 302.88 404.778 302.29 405.589C302.033 405.891 301.7 406.119 301.326 406.251C300.952 406.382 300.55 406.413 300.16 406.339C299.384 406.181 298.638 405.901 297.95 405.509C297.703 405.373 297.431 405.288 297.15 405.259C296.818 405.27 296.498 405.382 296.23 405.579C295.476 406.135 294.871 406.869 294.47 407.715C294.068 408.562 293.883 409.495 293.93 410.431C294.045 412.306 294.492 414.145 295.25 415.863C295.334 416.161 295.481 416.437 295.68 416.674C295.978 416.908 296.338 417.048 296.716 417.076C297.093 417.105 297.471 417.02 297.8 416.834C298.452 416.446 299.147 416.134 299.87 415.903C301.19 415.663 302.48 416.574 303.82 416.494C304.796 416.35 305.715 415.945 306.48 415.323C307.826 414.52 309.034 413.507 310.06 412.322C310.64 411.551 311.06 410.681 311.58 409.861C312.242 408.864 312.959 407.905 313.73 406.989L318.65 400.987C319.139 400.417 319.58 399.808 319.97 399.166C320.407 398.29 320.743 397.367 320.97 396.415C321.496 394.829 321.832 393.187 321.97 391.522C322 390.146 321.88 388.771 321.61 387.421C321.461 386.076 321.124 384.76 320.61 383.509C319.54 381.248 316.94 379.407 314.93 381.748Z" fill="#2F2E41"/>
<path d="M332.05 370.563C332.057 369.043 331.704 367.543 331.019 366.187C330.334 364.83 329.337 363.656 328.11 362.759C328.07 360.059 327.074 357.461 325.3 355.426C323.526 353.391 321.088 352.051 318.42 351.644C317.907 349.084 316.507 346.788 314.466 345.161C312.425 343.533 309.875 342.679 307.267 342.75C304.658 342.821 302.158 343.811 300.208 345.546C298.258 347.282 296.984 349.651 296.61 352.235C293.07 351.434 289.83 352.475 289.24 354.656C288.65 356.837 291.15 359.658 294.88 360.658C296.057 360.988 297.282 361.11 298.5 361.019C299.368 362.299 300.495 363.383 301.807 364.202C303.12 365.02 304.589 365.555 306.12 365.771C306.574 367.833 307.592 369.729 309.062 371.245C310.531 372.761 312.393 373.838 314.44 374.355C315.01 375.722 315.89 376.938 317.01 377.906C317.01 378.176 317.01 378.457 317.01 378.737C317.01 379.684 317.196 380.622 317.559 381.497C317.921 382.372 318.452 383.167 319.122 383.837C319.791 384.507 320.586 385.038 321.461 385.401C322.336 385.763 323.273 385.95 324.22 385.95C325.167 385.95 326.104 385.763 326.979 385.401C327.854 385.038 328.649 384.507 329.318 383.837C329.988 383.167 330.519 382.372 330.881 381.497C331.243 380.622 331.43 379.684 331.43 378.737C331.431 377.636 331.195 376.547 330.74 375.545C331.62 374.034 332.073 372.312 332.05 370.563Z" fill="#F86D70"/>
<path opacity="0.1" d="M291.64 355.116C292.23 352.935 295.47 351.894 299.01 352.695C299.43 350.07 300.765 347.677 302.778 345.942C304.791 344.206 307.353 343.239 310.01 343.211H310.74C309.722 342.9 308.664 342.742 307.6 342.74C304.943 342.768 302.381 343.736 300.368 345.471C298.355 347.207 297.02 349.599 296.6 352.225C293.06 351.424 289.82 352.465 289.23 354.646C288.64 356.827 291.14 359.648 294.87 360.648C295.569 360.842 296.286 360.966 297.01 361.019C293.44 359.948 291.05 357.347 291.64 355.116Z" fill="black"/>
<path opacity="0.1" d="M319.37 379.157C319.355 378.884 319.355 378.61 319.37 378.336C318.244 377.373 317.363 376.156 316.8 374.785C314.751 374.27 312.886 373.193 311.416 371.674C309.946 370.156 308.929 368.257 308.48 366.191C306.947 365.979 305.476 365.447 304.162 364.63C302.847 363.814 301.719 362.73 300.85 361.449C300.14 361.508 299.426 361.488 298.72 361.389C299.596 362.567 300.696 363.56 301.958 364.311C303.219 365.061 304.617 365.554 306.07 365.761C306.524 367.823 307.542 369.719 309.012 371.235C310.481 372.751 312.343 373.828 314.39 374.345C314.96 375.712 315.84 376.928 316.96 377.896C316.96 378.166 316.96 378.446 316.96 378.727C316.928 380.666 317.664 382.539 319.007 383.937C320.35 385.335 322.192 386.145 324.13 386.19C322.716 385.641 321.503 384.673 320.652 383.417C319.802 382.16 319.355 380.674 319.37 379.157Z" fill="black"/>
<path d="M307.107 367.688C307.683 367.25 307.677 366.271 307.092 365.501C306.507 364.731 305.566 364.461 304.99 364.899C304.414 365.337 304.421 366.316 305.006 367.086C305.59 367.856 306.531 368.125 307.107 367.688Z" fill="#FBBEBE"/>
</g>
<defs>
<linearGradient id="paint0_linear_209_314" x1="620.07" y1="514.208" x2="620.07" y2="342.01" gradientUnits="userSpaceOnUse">
<stop stop-color="#808080" stop-opacity="0.25"/>
<stop offset="0.54" stop-color="#808080" stop-opacity="0.12"/>
<stop offset="1" stop-color="#808080" stop-opacity="0.1"/>
</linearGradient>
<linearGradient id="paint1_linear_209_314" x1="62262" y1="67009.6" x2="62262" y2="56818.8" gradientUnits="userSpaceOnUse">
<stop stop-color="#808080" stop-opacity="0.25"/>
<stop offset="0.54" stop-color="#808080" stop-opacity="0.12"/>
<stop offset="1" stop-color="#808080" stop-opacity="0.1"/>
</linearGradient>
</defs>
</svg>
