<svg width="32" height="32" viewBox="0 0 32 32" fill="none" xmlns="http://www.w3.org/2000/svg">
<g clip-path="url(#clip0_218_2)">
<path fill-rule="evenodd" clip-rule="evenodd" d="M8.16933 5.67867C17.1573 7.8 23.2213 12.0147 26.4773 23.6893L0 32L8.16933 5.67867ZM6.664 22.668C8.13467 22.668 9.32933 23.8653 9.32933 25.3347C9.32933 26.8067 8.13467 28.0013 6.664 28.0013C5.192 28.0013 3.99867 26.8067 3.99867 25.3347C3.99867 23.8653 5.192 22.668 6.664 22.668ZM13.0147 18.816C14.4053 19.296 15.1427 20.816 14.6627 22.2067C14.1813 23.5973 12.6613 24.336 11.272 23.8547C11.272 23.8547 10.452 23.5653 10.7147 22.8107C10.9747 22.056 11.7947 22.3427 11.7947 22.3427C12.3507 22.536 12.9587 22.2413 13.152 21.6853C13.3427 21.1267 13.048 20.52 12.492 20.3253C12.492 20.3253 11.6533 20.1027 11.936 19.2893C12.192 18.5507 13.0147 18.816 13.0147 18.816V18.816ZM9.51867 3.764C7.672 3.17467 8.27867 0 10.5147 0L10.6627 0.00533333C21.7373 1.79467 29.336 10.2347 31.9893 21.336L32 21.54C32 23.5987 28.8293 24.248 28.1467 22.504C25.2747 12.1 19.044 6.02667 9.51867 3.764V3.764ZM19.328 18.668C20.4307 18.668 21.3267 19.5653 21.3267 20.668C21.3267 21.7733 20.4307 22.668 19.328 22.668C18.2227 22.668 17.3267 21.7733 17.3267 20.668C17.3267 19.5653 18.2227 18.668 19.328 18.668ZM8.752 18.5987C7.31867 18.26 6.43067 16.8227 6.76933 15.3907C7.10667 13.9587 8.544 13.0693 9.97467 13.408C9.97467 13.408 10.82 13.612 10.6373 14.3907C10.4533 15.1693 9.60933 14.9653 9.60933 14.9653C9.036 14.8293 8.46133 15.1853 8.32667 15.7587C8.19067 16.3307 8.54667 16.9067 9.11867 17.0413C9.11867 17.0413 9.97467 17.1787 9.77733 18.0173C9.59733 18.7787 8.752 18.5987 8.752 18.5987V18.5987ZM15.9947 10.6707C17.4653 10.6707 18.66 11.8653 18.66 13.336C18.66 14.808 17.4653 16.0027 15.9947 16.0027C14.5227 16.0027 13.328 14.808 13.328 13.336C13.328 11.8653 14.5227 10.6707 15.9947 10.6707Z" fill="url(#paint0_linear_218_2)"/>
</g>
<defs>
<linearGradient id="paint0_linear_218_2" x1="16" y1="0" x2="16" y2="32" gradientUnits="userSpaceOnUse">
<stop stop-color="#FC1D52"/>
<stop offset="1" stop-color="#FF731E"/>
</linearGradient>
<clipPath id="clip0_218_2">
<rect width="32" height="32" fill="white"/>
</clipPath>
</defs>
</svg>
